<svg xmlns="http://www.w3.org/2000/svg" width="40" height="40" viewBox="0 0 40 40"><g id="actionImage" fill="none" fill-rule="evenodd" stroke="none" stroke-width="1"><path id="2" fill="#EFEFEF" fill-rule="nonzero" d="M16.57,29 C15.57,29 15.14,29.29 15.14,30.38 L15.14,30.91 L16.06,30.91 L16.06,30.5 C16.06,29.98 16.19,29.73 16.51,29.73 C16.91,29.73 17.06,29.95 17.06,30.62 C17.06,31.66 16.81,31.93 16.06,33.4 C15.7,34.1 15.34,34.72 15,35.32 L15,36.29 L18.08,36.29 L18.08,35.43 L16.01,35.43 L17.11,33.38 C17.78,32.13 18,31.91 18,30.65 C18,29.55 17.73,29 16.57,29 Z M18.77,35.1 L18.77,36.29 L19.92,36.29 L19.92,35.1 L18.77,35.1 Z M23.62,30.61 C23.62,29.4 23.17,29.02 22.16,29.02 C21.12,29.02 20.66,29.4 20.66,30.6 L20.66,34.72 C20.66,35.7 20.89,36.36 22.09,36.36 C23.36,36.36 23.62,35.75 23.62,34.78 L23.62,30.61 Z M22.15,29.78 C22.52,29.78 22.68,29.98 22.68,30.5 L22.68,34.83 C22.68,35.32 22.51,35.61 22.12,35.61 C21.73,35.61 21.6,35.31 21.6,34.84 L21.6,30.61 C21.6,29.98 21.82,29.78 22.15,29.78 Z"/><path id="Template" fill="#EFEFEF" fill-rule="nonzero" d="M7.785,16.21 C9.195,16.21 9.75,16.96 9.75,18.22 L9.75,20.515 L7.065,20.515 L7.065,22.15 C7.065,22.72 7.26,22.99 7.755,22.99 C8.295,22.99 8.43,22.6 8.43,21.94 L8.43,21.355 L9.75,21.355 L9.75,22.405 C9.75,23.395 8.895,23.935 7.695,23.935 C6.285,23.935 5.64,23.38 5.64,21.94 L5.64,18.22 C5.64,17.005 6.24,16.21 7.785,16.21 Z M6.1,13 L6.1,14.26 L4.3,14.26 L4.3,23.83 L2.8,23.83 L2.8,14.26 L1,14.26 L1,13 L6.1,13 Z M7.725,17.125 C7.335,17.125 7.065,17.32 7.065,17.95 L7.065,19.54 L8.415,19.54 L8.415,18.16 C8.415,17.305 8.175,17.125 7.725,17.125 Z M14.73,16.96 C14.37,16.405 14.085,16.21 13.545,16.21 C12.96,16.21 12.585,16.45 12.15,17.005 L12.15,16.33 L10.815,16.33 L10.815,23.83 L12.225,23.83 L12.225,18.04 C12.225,17.515 12.42,17.23 12.84,17.23 C13.245,17.23 13.41,17.575 13.41,18.145 L13.41,23.83 L14.82,23.83 L14.82,17.92 C14.82,17.5 15.015,17.23 15.39,17.23 C15.765,17.23 15.945,17.515 15.945,18.025 L15.945,23.83 L17.355,23.83 L17.355,17.755 C17.355,16.84 16.815,16.21 15.96,16.21 C15.435,16.21 15.105,16.435 14.73,16.96 Z M19.83,16.33 L18.48,16.33 L18.48,26.59 L19.89,26.59 L19.89,23.41 C20.25,23.74 20.67,23.92 21.075,23.92 C21.345,23.92 22.5,23.845 22.5,22.03 L22.5,18.145 C22.5,16.945 22.08,16.24 21.18,16.24 C20.61,16.24 20.22,16.465 19.83,17.14 L19.83,16.33 Z M20.535,17.305 C20.925,17.305 21.075,17.59 21.075,18.355 L21.075,21.94 C21.075,22.585 20.94,22.945 20.505,22.945 C20.07,22.945 19.89,22.57 19.89,22.06 L19.89,18.13 C19.89,17.695 20.115,17.305 20.535,17.305 Z M23.535,13 L23.535,23.83 L24.945,23.83 L24.945,13 L23.535,13 Z M27.99,16.21 C26.595,16.21 25.98,16.78 25.98,17.845 L25.98,18.52 L27.39,18.52 L27.39,17.845 C27.39,17.425 27.54,17.2 27.99,17.2 C28.41,17.2 28.575,17.41 28.575,17.905 L28.575,19.135 C27.75,19.15 27.3,19.15 26.94,19.255 C26.565,19.36 26.235,19.63 26.055,20.08 C25.905,20.47 25.875,21.025 25.875,21.79 C25.875,23.485 26.265,23.92 27.225,23.92 C27.825,23.92 28.14,23.725 28.665,23.05 L28.665,23.83 L29.985,23.83 L29.985,18.025 C29.985,16.66 29.205,16.21 27.99,16.21 Z M27.285,21.67 C27.285,20.56 27.435,20.125 28.11,20.125 L28.575,20.125 L28.575,22.06 C28.575,22.555 28.335,22.93 27.84,22.93 C27.375,22.93 27.285,22.75 27.285,21.67 Z M32.73,14.38 L31.305,14.875 L31.305,16.33 L30.54,16.33 L30.54,17.335 L31.305,17.335 L31.305,22.69 C31.305,23.485 31.65,23.86 32.76,23.86 C33.21,23.86 33.465,23.83 33.765,23.83 L33.765,22.84 C33.615,22.87 33.48,22.87 33.405,22.87 C32.835,22.87 32.73,22.615 32.73,22.195 L32.73,17.335 L33.675,17.335 L33.675,16.33 L32.73,16.33 L32.73,14.38 Z M38.145,20.515 L38.145,18.22 C38.145,16.96 37.59,16.21 36.18,16.21 C34.635,16.21 34.035,17.005 34.035,18.22 L34.035,21.94 C34.035,23.38 34.68,23.935 36.09,23.935 C37.29,23.935 38.145,23.395 38.145,22.405 L38.145,21.355 L36.825,21.355 L36.825,21.94 C36.825,22.6 36.69,22.99 36.15,22.99 C35.655,22.99 35.46,22.72 35.46,22.15 L35.46,20.515 L38.145,20.515 Z M35.46,19.54 L35.46,17.95 C35.46,17.32 35.73,17.125 36.12,17.125 C36.57,17.125 36.81,17.305 36.81,18.16 L36.81,19.54 L35.46,19.54 Z"/></g></svg>