<svg xmlns="http://www.w3.org/2000/svg" width="144" height="144" viewBox="0 0 144 144"><defs><linearGradient id="linearGradient-1" x1="0%" x2="99.133%" y1="0%" y2="99.133%"><stop offset="0%" stop-color="#142DB3"/><stop offset="100%" stop-color="#1C40FF"/></linearGradient></defs><g id="action" fill="none" fill-rule="evenodd" stroke="none" stroke-width="1"><rect id="Rectangle" width="144" height="144" x="0" y="0" fill="url(#linearGradient-1)"/><g id="actionImage" fill="#EFEFEF" fill-rule="nonzero"><path id="2" d="M59.652,104.4 C56.052,104.4 54.504,105.444 54.504,109.368 L54.504,111.276 L57.816,111.276 L57.816,109.8 C57.816,107.928 58.284,107.028 59.436,107.028 C60.876,107.028 61.416,107.82 61.416,110.232 C61.416,113.976 60.516,114.948 57.816,120.24 C56.52,122.76 55.224,124.992 54,127.152 L54,130.644 L65.088,130.644 L65.088,127.548 L57.636,127.548 L61.596,120.168 C64.008,115.668 64.8,114.876 64.8,110.34 C64.8,106.38 63.828,104.4 59.652,104.4 Z M67.572,126.36 L67.572,130.644 L71.712,130.644 L71.712,126.36 L67.572,126.36 Z M85.032,110.196 C85.032,105.84 83.412,104.472 79.776,104.472 C76.032,104.472 74.376,105.84 74.376,110.16 L74.376,124.992 C74.376,128.52 75.204,130.896 79.524,130.896 C84.096,130.896 85.032,128.7 85.032,125.208 L85.032,110.196 Z M79.74,107.208 C81.072,107.208 81.648,107.928 81.648,109.8 L81.648,125.388 C81.648,127.152 81.036,128.196 79.632,128.196 C78.228,128.196 77.76,127.116 77.76,125.424 L77.76,110.196 C77.76,107.928 78.552,107.208 79.74,107.208 Z"/><path id="Template" d="M28.026,58.356 C33.102,58.356 35.1,61.056 35.1,65.592 L35.1,73.854 L25.434,73.854 L25.434,79.74 C25.434,81.792 26.136,82.764 27.918,82.764 C29.862,82.764 30.348,81.36 30.348,78.984 L30.348,76.878 L35.1,76.878 L35.1,80.658 C35.1,84.222 32.022,86.166 27.702,86.166 C22.626,86.166 20.304,84.168 20.304,78.984 L20.304,65.592 C20.304,61.218 22.464,58.356 28.026,58.356 Z M21.96,46.8 L21.96,51.336 L15.48,51.336 L15.48,85.788 L10.08,85.788 L10.08,51.336 L3.6,51.336 L3.6,46.8 L21.96,46.8 Z M27.81,61.65 C26.406,61.65 25.434,62.352 25.434,64.62 L25.434,70.344 L30.294,70.344 L30.294,65.376 C30.294,62.298 29.43,61.65 27.81,61.65 Z M53.028,61.056 C51.732,59.058 50.706,58.356 48.762,58.356 C46.656,58.356 45.306,59.22 43.74,61.218 L43.74,58.788 L38.934,58.788 L38.934,85.788 L44.01,85.788 L44.01,64.944 C44.01,63.054 44.712,62.028 46.224,62.028 C47.682,62.028 48.276,63.27 48.276,65.322 L48.276,85.788 L53.352,85.788 L53.352,64.512 C53.352,63 54.054,62.028 55.404,62.028 C56.754,62.028 57.402,63.054 57.402,64.89 L57.402,85.788 L62.478,85.788 L62.478,63.918 C62.478,60.624 60.534,58.356 57.456,58.356 C55.566,58.356 54.378,59.166 53.028,61.056 Z M71.388,58.788 L66.528,58.788 L66.528,95.724 L71.604,95.724 L71.604,84.276 C72.9,85.464 74.412,86.112 75.87,86.112 C76.842,86.112 81,85.842 81,79.308 L81,65.322 C81,61.002 79.488,58.464 76.248,58.464 C74.196,58.464 72.792,59.274 71.388,61.704 L71.388,58.788 Z M73.926,62.298 C75.33,62.298 75.87,63.324 75.87,66.078 L75.87,78.984 C75.87,81.306 75.384,82.602 73.818,82.602 C72.252,82.602 71.604,81.252 71.604,79.416 L71.604,65.268 C71.604,63.702 72.414,62.298 73.926,62.298 Z M84.726,46.8 L84.726,85.788 L89.802,85.788 L89.802,46.8 L84.726,46.8 Z M100.764,58.356 C95.742,58.356 93.528,60.408 93.528,64.242 L93.528,66.672 L98.604,66.672 L98.604,64.242 C98.604,62.73 99.144,61.92 100.764,61.92 C102.276,61.92 102.87,62.676 102.87,64.458 L102.87,68.886 C99.9,68.94 98.28,68.94 96.984,69.318 C95.634,69.696 94.446,70.668 93.798,72.288 C93.258,73.692 93.15,75.69 93.15,78.444 C93.15,84.546 94.554,86.112 98.01,86.112 C100.17,86.112 101.304,85.41 103.194,82.98 L103.194,85.788 L107.946,85.788 L107.946,64.89 C107.946,59.976 105.138,58.356 100.764,58.356 Z M98.226,78.012 C98.226,74.016 98.766,72.45 101.196,72.45 L102.87,72.45 L102.87,79.416 C102.87,81.198 102.006,82.548 100.224,82.548 C98.55,82.548 98.226,81.9 98.226,78.012 Z M117.828,51.768 L112.698,53.55 L112.698,58.788 L109.944,58.788 L109.944,62.406 L112.698,62.406 L112.698,81.684 C112.698,84.546 113.94,85.896 117.936,85.896 C119.556,85.896 120.474,85.788 121.554,85.788 L121.554,82.224 C121.014,82.332 120.528,82.332 120.258,82.332 C118.206,82.332 117.828,81.414 117.828,79.902 L117.828,62.406 L121.23,62.406 L121.23,58.788 L117.828,58.788 L117.828,51.768 Z M137.322,73.854 L137.322,65.592 C137.322,61.056 135.324,58.356 130.248,58.356 C124.686,58.356 122.526,61.218 122.526,65.592 L122.526,78.984 C122.526,84.168 124.848,86.166 129.924,86.166 C134.244,86.166 137.322,84.222 137.322,80.658 L137.322,76.878 L132.57,76.878 L132.57,78.984 C132.57,81.36 132.084,82.764 130.14,82.764 C128.358,82.764 127.656,81.792 127.656,79.74 L127.656,73.854 L137.322,73.854 Z M127.656,70.344 L127.656,64.62 C127.656,62.352 128.628,61.65 130.032,61.65 C131.652,61.65 132.516,62.298 132.516,65.376 L132.516,70.344 L127.656,70.344 Z"/></g></g></svg>